<?xml version="1.0" standalone="no"?>
<!DOCTYPE svg PUBLIC "-//W3C//DTD SVG 20010904//EN"
 "http://www.w3.org/TR/2001/REC-SVG-20010904/DTD/svg10.dtd">
<svg version="1.0" xmlns="http://www.w3.org/2000/svg"
 width="300.000000pt" height="192.000000pt" viewBox="0 0 300.000000 192.000000"
 preserveAspectRatio="xMidYMid meet">
<metadata>
Created by potrace 1.10, written by Peter Selinger 2001-2011
</metadata>
<g transform="translate(0.000000,192.000000) scale(0.100000,-0.100000)"
fill="#000000" stroke="none">
<path d="M1406 1885 c-28 -21 -42 -128 -21 -158 34 -48 18 -74 -74 -123 -71
-38 -99 -77 -112 -155 -6 -35 -12 -65 -13 -67 -2 -1 -6 24 -10 56 -8 67 -16
77 -93 116 -50 25 -53 29 -53 64 0 21 5 43 12 50 15 15 12 80 -6 108 -20 29
-67 39 -103 22 -38 -18 -53 -67 -46 -145 6 -62 5 -63 -23 -73 -77 -28 -122
-65 -130 -110 -4 -16 -10 -30 -15 -30 -4 0 -31 14 -59 32 -41 26 -50 36 -46
52 3 12 6 26 6 32 0 6 9 21 20 34 28 32 28 112 0 140 -45 45 -118 33 -142 -23
-7 -18 -12 -60 -11 -97 1 -36 -1 -70 -5 -76 -4 -7 -43 -26 -88 -43 -44 -17
-90 -41 -102 -54 -12 -13 -48 -84 -81 -158 -32 -73 -75 -169 -95 -212 -20 -43
-36 -84 -36 -92 0 -7 18 -33 39 -56 34 -38 44 -43 82 -44 24 0 59 3 77 7 l32
8 0 -43 c-1 -64 -25 -219 -38 -244 -7 -12 -12 -37 -12 -57 0 -28 4 -35 23 -38
22 -3 22 -4 18 -137 -2 -74 -8 -139 -12 -145 -5 -6 -20 -27 -32 -46 -12 -19
-42 -47 -65 -63 -64 -43 -45 -57 77 -57 53 0 102 4 110 9 11 7 12 20 5 58 -13
77 -9 141 16 251 l23 102 36 0 36 0 -3 -117 c-2 -65 -7 -129 -12 -143 -17 -50
-32 -131 -26 -145 4 -11 23 -15 78 -15 126 0 143 14 82 65 -44 37 -61 104 -43
169 7 23 17 77 23 121 10 67 15 80 31 83 50 7 66 14 84 33 15 16 23 19 37 11
17 -9 18 -25 15 -178 -1 -92 -7 -179 -12 -193 -5 -14 -26 -40 -46 -57 -20 -18
-33 -36 -29 -43 8 -12 79 -14 138 -5 l38 7 -5 101 c-4 74 -1 116 10 152 8 27
15 81 15 119 0 66 2 71 28 86 22 12 30 13 39 3 7 -6 17 -14 23 -16 8 -2 11
-65 11 -203 0 -110 -1 -211 -3 -225 -3 -23 1 -25 41 -28 83 -6 109 11 75 50
-29 31 -34 110 -18 242 8 66 14 134 12 150 -3 25 2 31 29 40 57 20 58 23 45
161 -7 69 -19 175 -28 235 -15 107 -15 110 4 137 11 16 25 47 31 71 l12 42 52
-38 c29 -22 53 -48 55 -60 2 -11 -6 -50 -17 -86 -11 -36 -25 -110 -31 -163 -5
-54 -14 -116 -20 -138 -14 -59 -12 -103 5 -113 14 -7 14 -14 1 -66 -8 -31 -18
-103 -21 -159 -8 -132 -10 -142 -37 -155 -18 -8 -19 -11 -5 -11 9 -1 17 -6 17
-12 0 -18 -22 -53 -42 -67 -11 -8 -18 -23 -16 -35 3 -19 10 -22 57 -25 98 -6
100 -4 94 83 -6 80 5 136 43 220 13 28 26 82 30 123 l7 72 47 0 c54 0 55 1 65
83 4 31 11 55 15 52 4 -2 15 -32 24 -65 9 -33 22 -60 29 -61 7 -1 28 0 48 1
l36 1 6 -74 c4 -54 13 -88 34 -128 26 -50 28 -64 30 -174 1 -66 2 -123 3 -127
0 -5 51 -7 113 -5 l112 2 -2 60 c-1 33 -3 87 -4 120 -3 62 36 255 51 255 4 0
14 16 22 37 l15 36 11 -32 c6 -17 18 -34 27 -37 10 -4 15 -20 15 -53 0 -26 11
-85 25 -132 24 -78 25 -89 14 -156 -6 -40 -9 -79 -6 -87 5 -14 31 -16 168 -16
l161 0 -6 43 c-3 23 -9 100 -12 170 -6 124 -6 128 14 134 13 3 26 19 33 42
l12 36 9 -32 c6 -24 16 -34 36 -39 15 -3 32 -7 39 -9 6 -2 14 -41 18 -99 7
-94 6 -116 -13 -188 -7 -25 -6 -40 1 -47 14 -14 223 -15 232 -2 7 12 -10 27
-55 49 -19 9 -45 33 -58 52 -23 33 -24 41 -19 145 4 63 10 111 16 113 16 5 13
50 -9 187 -10 65 -17 121 -15 124 3 2 12 -2 21 -10 21 -17 114 -18 147 0 15 8
32 31 42 57 l17 44 -37 57 c-73 115 -109 180 -157 288 -26 60 -55 116 -63 125
-9 8 -43 24 -77 35 -77 25 -100 55 -80 107 8 21 8 36 2 42 -6 6 -10 22 -10 36
0 56 -85 85 -129 46 -28 -25 -27 -128 1 -153 10 -9 18 -29 18 -44 0 -22 -6
-30 -25 -35 -13 -3 -45 -28 -70 -55 l-45 -48 0 85 c0 110 -13 136 -88 172 -51
24 -57 31 -60 61 -2 18 4 48 12 66 14 29 14 38 2 80 -8 26 -23 53 -33 61 -28
21 -71 17 -97 -9 -30 -30 -44 -122 -22 -146 19 -21 8 -80 -19 -95 -68 -36 -98
-61 -107 -87 -5 -16 -14 -29 -18 -29 -5 0 -13 31 -20 68 -16 95 -38 128 -108
158 -100 43 -102 45 -102 78 0 17 7 39 15 50 10 13 11 24 5 37 -6 9 -7 31 -4
47 5 24 1 33 -21 51 -32 24 -81 27 -109 6z m-118 -633 c-3 -39 -15 -45 -35
-15 -10 14 -9 25 4 51 13 28 18 31 25 18 5 -9 8 -33 6 -54z m363 5 c-8 -8 -11
-4 -11 14 0 33 14 47 18 19 2 -12 -1 -27 -7 -33z m-1328 -100 c-5 -62 -9 -77
-20 -73 -8 4 -33 6 -54 6 l-40 0 18 31 c20 35 94 122 99 117 1 -2 0 -38 -3
-81z m1437 -21 c11 -34 27 -72 35 -82 21 -28 18 -103 -13 -255 l-27 -136 -22
56 c-12 31 -27 90 -33 131 -7 41 -23 113 -36 160 -27 96 -30 130 -11 130 7 0
28 13 47 30 19 16 36 29 37 30 1 0 11 -29 23 -64z m-984 -86 c-4 -21 -39 -220
-62 -358 -11 -69 -21 -17 -27 143 -7 156 -6 168 14 208 33 66 39 70 61 50 14
-12 18 -25 14 -43z m1914 -111 c0 -4 -12 -10 -26 -13 -14 -4 -37 -19 -51 -34
l-26 -27 6 25 c4 14 7 52 7 85 l0 59 45 -44 c25 -24 45 -47 45 -51z m-466
-144 l6 -120 -35 145 c-19 79 -35 147 -35 150 0 2 13 -9 29 -25 29 -29 30 -34
35 -150z m-482 -210 c-4 -21 2 -27 41 -44 l45 -20 -10 -41 c-8 -28 -8 -73 -1
-143 12 -119 -4 -260 -25 -221 -23 43 -42 159 -42 258 0 77 -5 118 -20 161
-20 58 -19 75 4 75 9 0 12 -9 8 -25z m474 -90 c-6 -32 -5 -35 26 -43 l33 -8
17 -138 c16 -125 16 -140 2 -168 -14 -27 -19 -29 -47 -24 -40 8 -52 20 -72 76
-12 31 -19 88 -22 183 -4 136 -4 137 19 146 43 18 51 14 44 -24z"/>
</g>
</svg>
