<?xml version="1.0" standalone="no"?>
<!DOCTYPE svg PUBLIC "-//W3C//DTD SVG 20010904//EN"
 "http://www.w3.org/TR/2001/REC-SVG-20010904/DTD/svg10.dtd">
<svg version="1.0" xmlns="http://www.w3.org/2000/svg"
 width="202.000000pt" height="202.000000pt" viewBox="0 0 202.000000 202.000000"
 preserveAspectRatio="xMidYMid meet">
<metadata>
Created by potrace 1.10, written by Peter Selinger 2001-2011
</metadata>
<g transform="translate(0.000000,202.000000) scale(0.100000,-0.100000)"
fill="#000000" stroke="none">
<path d="M1088 1904 c-42 -22 -51 -46 -34 -96 19 -53 15 -58 -12 -16 l-21 32
-11 -29 c-16 -42 -4 -90 34 -133 44 -51 78 -100 98 -144 9 -21 21 -38 27 -38
15 0 68 -148 80 -225 6 -38 13 -81 16 -95 5 -19 -4 -38 -35 -79 -45 -59 -48
-69 -23 -67 29 2 27 -37 -2 -64 l-27 -25 7 28 c6 22 4 26 -9 21 -9 -3 -23 -1
-31 6 -19 16 -56 -7 -88 -55 -12 -19 -29 -36 -37 -39 -8 -4 -21 -9 -28 -12
-11 -5 -11 -3 0 15 7 12 18 21 25 21 6 0 14 3 17 8 6 11 -21 123 -33 135 -6 6
-11 23 -11 38 0 14 -9 38 -21 52 l-20 26 31 73 c17 40 34 79 37 86 3 8 0 10
-10 7 -10 -4 -17 2 -21 19 -3 14 -10 25 -14 24 -4 -2 -17 6 -29 17 -17 14 -20
22 -11 32 9 11 7 19 -9 35 -14 13 -23 16 -27 9 -4 -6 -3 -11 2 -11 5 0 12 -23
16 -50 4 -28 12 -62 18 -76 9 -20 8 -28 -9 -47 -21 -23 -63 -90 -63 -100 0 -3
10 -7 23 -10 19 -3 18 -5 -10 -12 -39 -9 -34 -25 8 -25 44 0 35 -16 -18 -29
-43 -11 -48 -11 -63 8 -14 20 -17 20 -38 6 -41 -29 -24 -171 23 -188 8 -4 15
-11 15 -17 0 -7 -7 -7 -21 1 -15 8 -24 8 -32 0 -8 -8 -8 -11 1 -11 7 0 12 -5
12 -11 0 -7 -10 -9 -24 -5 -14 3 -28 1 -31 -5 -4 -6 -13 -8 -21 -5 -9 4 -14
-2 -14 -15 0 -11 4 -18 9 -14 5 3 12 1 16 -5 3 -5 15 -10 25 -10 17 0 18 -2 3
-40 -16 -41 -40 -56 -30 -19 4 15 2 17 -6 10 -8 -6 -19 -3 -35 9 -12 10 -18
21 -13 24 5 3 7 15 4 26 -4 16 -8 18 -19 9 -24 -20 -15 -78 26 -171 22 -50 40
-96 40 -104 0 -13 17 -43 78 -135 32 -48 49 -101 59 -186 4 -30 10 -44 24 -48
12 -4 22 -19 26 -36 6 -33 7 -33 36 -18 12 7 78 18 147 24 69 7 144 18 167 25
38 12 41 15 45 53 4 37 3 38 -10 18 -8 -11 -19 -21 -24 -21 -7 0 -6 5 1 13 10
13 11 77 0 77 -3 0 -11 -6 -18 -12 -11 -11 -11 -9 -2 9 15 29 14 34 -6 26 -12
-5 -14 -3 -7 8 30 48 36 91 38 271 l2 188 41 42 c47 48 93 153 100 230 6 63
-32 195 -61 210 -33 17 -76 60 -76 77 0 8 8 23 17 34 17 18 17 19 0 28 -10 6
-14 15 -10 22 5 7 8 41 9 78 0 52 5 71 24 96 24 33 37 112 26 157 -7 27 -52
86 -67 86 -4 0 3 -16 16 -36 14 -20 25 -44 25 -53 0 -9 -10 2 -23 24 -42 74
-117 103 -179 69z m144 -306 c-7 -7 -12 -8 -12 -2 0 14 12 26 19 19 2 -3 -1
-11 -7 -17z m98 -348 c7 -13 7 -26 2 -37 -8 -14 -12 -12 -26 15 -15 29 -14 32
11 41 1 1 7 -8 13 -19z m-35 -140 c-3 -5 1 -10 9 -10 13 0 12 -6 -5 -35 -16
-27 -27 -35 -50 -35 -37 0 -37 19 0 59 27 29 60 44 46 21z m42 -77 c-22 -41
-55 -69 -68 -56 -8 8 2 23 33 51 23 22 44 39 46 37 2 -2 -3 -16 -11 -32z
m-187 -122 c0 -5 7 -11 16 -13 13 -2 11 -8 -9 -26 l-25 -24 -18 27 c-15 23
-15 28 -3 36 18 11 39 11 39 0z m-270 -65 c19 0 44 4 54 9 12 5 17 5 13 -2 -3
-5 -24 -15 -46 -23 -32 -10 -46 -10 -70 0 -36 14 -43 36 -8 25 12 -5 38 -8 57
-9z m5 -536 c-10 -16 -34 -11 -45 9 -16 30 -12 33 20 16 17 -9 28 -20 25 -25z"/>
<path d="M977 1494 l-12 -27 -6 24 c-6 22 -7 21 -8 -7 -1 -27 23 -65 33 -53 5
6 15 89 10 89 -3 0 -10 -12 -17 -26z"/>
<path d="M1017 1455 c-31 -39 -33 -48 -11 -69 14 -15 18 -13 40 19 31 46 31
55 -1 25 -29 -27 -31 -21 -9 21 22 43 13 44 -19 4z"/>
</g>
</svg>
