<?xml version="1.0" standalone="no"?>
<!DOCTYPE svg PUBLIC "-//W3C//DTD SVG 20010904//EN"
 "http://www.w3.org/TR/2001/REC-SVG-20010904/DTD/svg10.dtd">
<svg version="1.0" xmlns="http://www.w3.org/2000/svg"
 width="512.000000pt" height="512.000000pt" viewBox="0 0 512.000000 512.000000"
 preserveAspectRatio="xMidYMid meet">
<metadata>
Created by potrace 1.16, written by Peter Selinger 2001-2019
</metadata>
<g transform="translate(0.000000,512.000000) scale(0.100000,-0.100000)"
fill="#000000" stroke="none">
<path d="M1964 4376 c-38 -17 -70 -49 -94 -97 -29 -55 -18 -190 18 -231 11
-14 13 -26 6 -49 -8 -27 -18 -35 -59 -49 -81 -28 -103 -38 -112 -53 -4 -8 -26
-20 -48 -27 -81 -25 -122 -57 -151 -115 -24 -49 -26 -64 -21 -128 4 -59 1 -79
-15 -110 -10 -21 -28 -73 -39 -115 -16 -65 -25 -82 -55 -106 -20 -16 -69 -73
-109 -125 -99 -131 -197 -224 -259 -247 -43 -16 -99 -53 -147 -99 -8 -8 -32
-59 -53 -112 -33 -84 -37 -107 -34 -159 3 -50 10 -72 39 -116 109 -163 332
-146 425 32 26 50 25 151 -3 212 -14 32 -18 49 -11 56 11 11 -34 59 -84 90
-20 12 -26 21 -22 38 7 26 -19 54 -49 54 -18 0 -19 2 -7 10 24 15 39 12 66
-15 l26 -26 51 34 c29 19 95 61 147 93 146 90 170 116 252 280 40 78 76 140
80 138 11 -7 10 -172 -2 -234 -7 -36 -22 -67 -50 -102 -28 -36 -40 -60 -40
-84 0 -24 -7 -38 -27 -54 -43 -33 -73 -90 -73 -136 0 -32 -10 -54 -49 -110
-60 -85 -231 -407 -231 -435 0 -14 9 -21 30 -26 17 -3 32 -9 35 -12 13 -22
-72 -202 -129 -275 -56 -71 -74 -111 -110 -241 -59 -214 -85 -286 -116 -316
-16 -17 -35 -49 -42 -72 -9 -31 -32 -62 -88 -117 -62 -60 -79 -84 -90 -123
-12 -45 -12 -49 10 -72 38 -41 111 -54 182 -35 59 17 78 39 92 108 9 39 28 84
54 124 31 48 44 80 52 133 12 73 34 116 145 275 65 93 87 136 114 225 15 49
33 82 60 110 21 22 52 59 69 82 31 40 34 41 68 32 50 -14 67 -5 95 53 28 58
147 255 179 295 l20 26 1 -69 c0 -38 8 -136 17 -219 16 -144 18 -149 42 -155
31 -7 38 -35 32 -122 -3 -41 0 -79 8 -97 13 -34 92 -98 184 -151 35 -21 62
-44 65 -55 2 -11 13 -40 24 -65 28 -60 34 -176 14 -267 -9 -37 -19 -98 -22
-135 -7 -63 -6 -68 18 -92 48 -48 145 -30 204 37 57 65 62 109 46 362 -10 160
-23 204 -66 226 -30 16 -37 28 -37 67 0 58 -37 126 -86 162 -25 18 -43 37 -41
44 2 6 12 38 22 71 9 33 32 80 50 105 42 59 46 78 29 150 -10 44 -11 67 -3 87
6 15 9 73 8 128 -1 56 1 107 5 114 12 19 8 133 -8 210 l-15 71 44 41 c24 22
49 57 56 77 11 34 9 168 -6 342 l-6 65 23 -30 c13 -16 58 -67 102 -112 l79
-82 8 -88 c5 -52 19 -119 36 -163 20 -57 27 -94 27 -155 1 -89 -9 -108 -85
-161 -23 -15 -48 -47 -65 -80 -15 -30 -33 -59 -41 -65 -7 -7 -13 -18 -13 -26
0 -16 34 -15 72 2 16 6 17 2 12 -38 -7 -48 9 -98 19 -61 3 10 8 35 11 54 7 38
32 78 42 67 4 -3 -1 -13 -10 -22 -17 -17 -24 -111 -7 -101 5 3 14 -8 20 -24
17 -49 31 -35 32 33 1 66 2 66 19 0 7 -28 16 -43 27 -43 14 0 15 10 11 68 -5
55 -4 61 4 32 19 -66 19 -67 28 -45 5 11 9 44 9 73 1 28 4 52 9 52 4 0 15 -18
24 -40 9 -23 23 -40 32 -40 21 0 20 6 -9 78 -16 40 -25 81 -25 117 0 54 3 60
70 150 99 134 158 264 208 455 7 29 10 16 17 -82 4 -65 4 -142 1 -172 -6 -42
-3 -64 9 -90 17 -35 17 -35 -19 -94 -27 -42 -41 -82 -53 -143 -8 -46 -30 -136
-48 -200 -19 -64 -46 -177 -60 -250 -17 -84 -36 -147 -50 -169 -62 -97 -69
-200 -19 -271 60 -86 75 -117 65 -136 -5 -10 -14 -36 -20 -59 -9 -35 -20 -47
-71 -78 -33 -21 -60 -40 -60 -44 0 -4 -14 -13 -32 -21 -17 -8 -49 -30 -70 -49
-75 -68 -83 -119 -26 -167 25 -21 40 -25 97 -25 76 0 112 15 187 77 27 22 69
51 93 64 51 28 71 53 55 69 -16 16 -132 -38 -192 -88 -65 -54 -83 -62 -139
-62 -56 0 -68 6 -82 41 -18 49 30 102 118 134 34 12 47 12 58 3 18 -15 -3 -30
-26 -19 -11 6 -24 -2 -44 -25 -32 -38 -23 -45 17 -13 15 12 33 18 45 14 22 -7
36 26 18 44 -12 12 20 54 34 46 4 -3 11 -1 14 5 5 8 11 7 21 -1 16 -13 8 -33
-9 -22 -18 11 -38 12 -31 2 3 -5 10 -7 15 -4 5 3 6 -1 3 -10 -5 -12 -9 -13
-20 -4 -20 16 -25 8 -9 -14 12 -17 16 -16 62 19 26 21 41 35 31 31 -10 -3 -23
3 -35 15 -10 12 -12 18 -5 14 7 -4 12 -1 12 8 0 21 5 20 40 -5 l29 -22 40 20
c33 17 41 18 41 6 0 -41 -58 -81 -100 -70 -11 3 -23 0 -27 -5 -4 -7 -1 -8 8
-3 8 4 -4 -8 -26 -28 l-40 -37 70 31 c39 16 81 36 95 42 46 23 76 150 48 200
-16 27 -18 237 -3 238 6 0 30 15 55 32 38 27 56 54 112 162 37 72 82 175 100
230 l32 100 13 -110 c8 -60 25 -150 40 -200 14 -49 28 -102 31 -118 2 -15 14
-35 27 -45 12 -10 26 -33 30 -52 10 -46 18 -61 65 -115 22 -25 40 -55 40 -66
0 -30 35 -114 63 -151 15 -19 45 -68 68 -109 40 -70 42 -78 44 -165 1 -80 5
-96 33 -149 28 -52 32 -68 32 -137 0 -66 3 -81 21 -99 19 -19 30 -21 79 -16
99 9 211 76 209 126 0 24 -1 24 -9 5 -13 -32 -64 -70 -125 -93 -57 -21 -130
-28 -139 -13 -3 5 16 7 42 5 84 -8 222 82 222 144 0 7 -35 51 -78 96 -47 51
-82 98 -90 122 -21 62 -42 105 -51 105 -15 0 -20 26 -36 163 -23 200 -33 239
-82 325 -24 42 -46 88 -47 102 -2 14 -1 19 1 12 7 -20 26 -9 42 23 11 23 26
117 30 189 1 5 11 0 24 -12 32 -30 70 -42 135 -42 45 0 68 7 110 30 28 17 52
35 52 41 0 6 9 9 19 6 27 -7 34 1 55 65 17 51 18 65 7 129 -11 68 -40 141 -61
154 -5 3 -10 19 -10 34 0 23 -46 102 -70 121 -3 3 -14 43 -24 90 -10 47 -35
138 -57 202 -21 64 -39 123 -39 130 0 8 -9 32 -21 53 -12 22 -29 78 -39 126
-10 47 -29 114 -43 150 -14 35 -28 92 -31 125 -12 128 -67 224 -148 259 -24
11 -45 22 -48 25 -22 22 -135 70 -168 70 -86 0 -96 69 -25 179 37 59 44 77 36
90 -7 12 -8 23 -1 35 7 12 7 21 -1 29 -6 6 -11 19 -11 29 0 10 -7 18 -16 18
-8 0 -13 4 -10 9 3 5 -12 21 -34 36 -51 35 -142 57 -192 46 -20 -5 -39 -7 -41
-5 -2 3 -10 -2 -17 -11 -7 -8 -18 -15 -24 -15 -23 -1 -46 -49 -45 -92 1 -24
-4 -56 -10 -71 -11 -27 -8 -133 4 -222 15 -100 18 -92 -46 -131 -32 -19 -59
-42 -59 -49 0 -7 -15 -22 -32 -33 -44 -28 -84 -71 -99 -107 -7 -16 -14 -79
-15 -140 -9 -317 -13 -373 -28 -420 -8 -28 -19 -66 -24 -85 -7 -30 -9 -22 -15
58 -12 158 -106 402 -198 512 -33 38 -59 75 -59 82 -1 25 -41 103 -68 131 -15
16 -44 38 -65 48 -21 11 -42 31 -47 44 -7 18 -35 38 -95 67 -73 37 -84 45 -78
63 6 20 19 107 30 198 3 26 2 59 -1 72 -9 37 -66 96 -111 116 -48 22 -146 24
-191 5z m161 -17 c47 -13 115 -77 115 -108 0 -19 -4 -21 -22 -14 -46 16 -170
6 -252 -21 -102 -34 -116 -25 -77 52 43 85 133 119 236 91z m1220 -19 c3 -5 2
-10 -4 -10 -5 0 -13 5 -16 10 -3 6 -2 10 4 10 5 0 13 -4 16 -10z m35 0 c0 -5
-2 -10 -4 -10 -3 0 -8 5 -11 10 -3 6 -1 10 4 10 6 0 11 -4 11 -10z m-103 -16
c-3 -3 -12 -4 -19 -1 -8 3 -5 6 6 6 11 1 17 -2 13 -5z m143 2 c0 -3 -4 -8 -10
-11 -5 -3 -10 -1 -10 4 0 6 5 11 10 11 6 0 10 -2 10 -4z m45 -16 c3 -5 1 -10
-4 -10 -6 0 -11 5 -11 10 0 6 2 10 4 10 3 0 8 -4 11 -10z m30 -20 c3 -5 1 -10
-4 -10 -6 0 -11 5 -11 10 0 6 2 10 4 10 3 0 8 -4 11 -10z m-128 -81 c50 -31
63 -47 63 -80 0 -32 6 -34 44 -19 24 9 26 7 26 -18 0 -15 -9 -42 -20 -60 -16
-25 -25 -32 -40 -27 -16 5 -22 0 -31 -22 -13 -34 -55 -80 -91 -99 -35 -18 -48
-18 -48 3 0 15 -2 15 -19 -1 -13 -11 -27 -15 -40 -11 -23 7 -29 33 -8 32 33
-1 46 5 52 24 8 24 -18 48 -52 49 -13 0 -23 6 -23 14 0 9 10 13 31 12 18 0 34
4 36 10 2 7 -10 11 -34 10 -34 -1 -38 2 -41 27 -2 19 1 27 12 27 10 0 16 9 16
23 0 21 5 24 39 25 21 1 49 6 62 11 20 8 16 10 -26 10 -27 0 -57 -3 -65 -9
-28 -18 -40 7 -23 48 8 20 20 41 27 45 19 13 118 -2 153 -24z m-1147 8 c37
-18 37 -49 0 -70 -34 -21 -40 -53 -10 -62 22 -7 26 -38 10 -80 -6 -17 -14 -23
-22 -19 -9 6 -9 9 0 12 7 2 12 10 12 18 0 8 -6 11 -15 8 -8 -4 -23 -3 -32 0
-15 6 -15 8 -3 17 12 8 11 9 -5 7 -13 -2 -20 -11 -20 -26 0 -13 -11 -32 -24
-41 -24 -18 -24 -18 -82 40 -64 62 -70 83 -46 142 13 29 35 47 77 60 30 11
136 6 160 -6z m-292 -69 c2 -10 -7 -21 -20 -28 -21 -10 -22 -10 -4 4 20 16 12
41 -11 32 -8 -3 -11 -1 -8 5 10 15 39 6 43 -13z m294 -50 c-7 -7 -12 -8 -12
-2 0 14 12 26 19 19 2 -3 -1 -11 -7 -17z m-274 -63 l0 -30 -11 28 c-6 15 -17
27 -24 27 -7 0 -17 10 -24 21 -9 17 -8 20 3 13 17 -11 38 -14 37 -6 -1 4 0 12
1 17 4 17 18 -39 18 -70z m1527 -140 c6 -73 5 -83 -17 -114 -31 -46 -44 -48
-57 -10 -20 59 -14 113 19 154 17 21 30 45 30 53 0 10 3 12 9 7 5 -6 12 -46
16 -90z m-1550 4 c3 -42 12 -101 19 -132 7 -32 12 -57 10 -57 -8 0 -52 76 -59
100 -7 24 -7 25 9 5 l17 -20 -5 20 c-16 64 -18 79 -11 121 3 25 8 44 10 42 2
-2 6 -37 10 -79z m265 53 c0 -5 -13 -7 -30 -4 -16 2 -30 6 -30 8 0 2 14 4 30
4 17 0 30 -4 30 -8z m1017 -8 c-3 -3 -12 -4 -19 -1 -8 3 -5 6 6 6 11 1 17 -2
13 -5z m-1044 -21 c25 -8 21 -23 -8 -23 -15 0 -29 8 -36 22 -10 19 -9 20 7 13
11 -4 27 -10 37 -12z m-293 -3 c0 -5 -6 -9 -12 -7 -9 1 -14 -14 -16 -45 -6
-90 57 -188 143 -224 22 -9 37 -13 32 -8 -4 4 11 18 34 31 54 31 65 29 14 -2
-22 -14 -35 -25 -30 -25 25 0 137 97 157 135 5 11 -2 7 -16 -10 -30 -36 -34
-25 -6 16 12 15 27 45 36 66 l14 38 -5 -35 c-3 -25 -2 -31 5 -20 5 8 12 34 16
58 3 23 8 42 11 42 2 0 18 -7 34 -16 23 -11 29 -20 24 -32 -16 -39 -33 -100
-38 -142 -5 -32 -4 -38 2 -20 7 18 9 1 10 -61 1 -103 19 -169 61 -220 17 -22
26 -39 21 -39 -6 0 -24 20 -41 45 -17 25 -33 45 -35 45 -6 0 6 -31 27 -66 17
-28 17 -42 8 -150 -6 -65 -9 -148 -8 -183 l3 -64 -74 -68 c-41 -38 -83 -69
-93 -69 -43 0 -285 53 -317 70 -71 36 -86 62 -89 158 l-3 87 32 -55 c19 -33
34 -49 37 -41 3 9 15 2 39 -25 l34 -39 -31 48 c-17 26 -34 45 -38 43 -4 -3 -8
3 -9 12 -1 9 -20 84 -42 166 -44 162 -44 173 -11 401 8 54 8 54 4 8 -3 -29 -1
-53 4 -53 11 0 22 82 22 161 0 55 12 82 40 92 25 9 50 8 50 -3z m1337 4 c-3
-3 -12 -4 -19 -1 -8 3 -5 6 6 6 11 1 17 -2 13 -5z m-1469 -106 c-10 -40 -23
-117 -29 -170 -7 -54 -16 -95 -20 -92 -21 12 41 334 64 334 2 0 -5 -33 -15
-72z m584 43 c-9 -16 -18 -28 -21 -26 -4 5 27 55 34 55 2 0 -4 -13 -13 -29z
m-465 -18 c-3 -10 -5 -4 -5 12 0 17 2 24 5 18 2 -7 2 -21 0 -30z m1659 -14
c-7 -35 -55 -136 -71 -149 -6 -5 4 20 22 56 18 37 33 82 33 101 0 22 4 32 11
27 6 -4 9 -19 5 -35z m106 23 c4 -4 3 -25 -2 -47 -14 -60 -12 -174 5 -238 17
-66 58 -152 88 -184 20 -22 20 -27 8 -150 -7 -71 -17 -153 -23 -183 -7 -30
-11 -58 -10 -62 1 -6 -73 -70 -117 -100 -48 -33 -9 -18 62 22 67 39 69 39 52
14 -10 -15 -26 -42 -37 -60 -30 -50 -86 -67 -228 -68 -133 -1 -139 1 -191 84
-22 34 -29 40 -29 24 0 -12 11 -38 25 -58 31 -45 31 -50 3 -35 -64 32 -81 73
-58 135 l10 26 41 -46 c40 -45 85 -66 139 -66 23 1 23 2 -10 19 -48 26 -71 53
-120 139 -30 53 -45 96 -56 155 -24 135 -44 336 -42 437 l2 95 7 -105 c5 -89
6 -82 4 51 l-3 157 24 11 c14 6 26 11 28 11 2 0 9 -26 15 -57 16 -81 48 -132
103 -166 54 -34 79 -32 129 10 34 29 109 138 109 157 -1 6 -10 -6 -21 -26 -11
-21 -22 -38 -24 -38 -3 0 3 17 14 38 10 20 24 57 31 80 10 41 13 43 38 37 15
-3 30 -9 34 -13z m-1280 -29 c-12 -29 -17 -68 -17 -163 0 -109 3 -131 22 -169
12 -25 21 -47 19 -48 -2 -2 -14 18 -27 44 -22 43 -24 62 -24 178 0 106 3 136
18 163 24 44 30 41 9 -5z m-642 12 c0 -8 -25 -42 -55 -75 -30 -34 -68 -82 -85
-108 l-30 -45 0 52 c0 88 44 151 125 179 41 14 45 14 45 -3z m1530 -35 c0 -22
-2 -40 -4 -40 -2 0 -6 18 -8 40 -2 22 0 40 4 40 5 0 8 -18 8 -40z m50 4 c26
-41 23 -50 -8 -28 -12 8 -22 26 -22 40 0 32 4 31 30 -12z m373 -26 c-23 -84
-12 -168 41 -323 4 -11 -2 -4 -13 15 -33 58 -54 172 -48 261 5 77 11 99 26 99
4 0 2 -24 -6 -52z m-1786 20 c-3 -8 -6 -5 -6 6 -1 11 2 17 5 13 3 -3 4 -12 1
-19z m274 -21 c-47 -69 -145 -121 -165 -88 -3 4 6 6 19 3 34 -6 97 37 131 88
15 22 31 40 36 40 5 0 -4 -19 -21 -43z m309 10 c46 -27 60 -43 90 -101 29 -56
35 -79 34 -128 -1 -98 -32 -100 -100 -6 -20 29 -57 74 -81 99 -48 50 -62 95
-44 142 14 35 35 34 101 -6z m-428 -31 c-9 -18 -11 -16 -11 19 0 33 1 37 10
21 8 -12 8 -25 1 -40z m265 2 c-3 -7 -5 -2 -5 12 0 14 2 19 5 13 2 -7 2 -19 0
-25z m1477 18 c65 -27 122 -135 133 -251 3 -35 3 -75 -1 -90 l-7 -26 -37 22
c-69 42 -145 113 -163 153 -20 45 -25 139 -9 180 11 30 34 33 84 12z m-1828
-77 c16 -15 38 -31 49 -37 12 -7 15 -12 6 -12 -18 0 -121 103 -121 121 0 8 8
1 19 -16 10 -16 31 -42 47 -56z m1173 -56 c-1 -71 -4 -141 -8 -158 -3 -16 -6
42 -6 128 0 86 3 157 8 157 4 0 6 -57 6 -127z m140 62 c0 -5 -4 -3 -9 5 -5 8
-9 22 -9 30 0 16 17 -16 18 -35z m-1099 32 c0 -2 -10 -12 -22 -23 l-23 -19 19
23 c18 21 26 27 26 19z m1216 -114 c-7 -7 -96 80 -96 94 0 5 23 -13 51 -40 28
-27 48 -51 45 -54z m-300 53 c-2 -28 -14 -59 -34 -88 -17 -24 -38 -70 -47
-101 -9 -31 -20 -57 -25 -57 -12 0 -20 39 -20 100 1 96 43 159 127 189 1 1 1
-19 -1 -43z m304 0 c0 -6 -7 -2 -15 8 -8 11 -15 25 -15 30 0 6 7 2 15 -8 8
-11 15 -25 15 -30z m108 -6 c-22 -30 -35 -41 -22 -17 9 16 36 47 41 47 2 0 -6
-13 -19 -30z m-167 -42 c13 -11 17 -16 9 -12 -24 12 -51 37 -62 59 -7 15 -5
14 10 -4 11 -13 30 -33 43 -43z m129 8 c0 -2 -8 -10 -17 -17 -16 -13 -17 -12
-4 4 13 16 21 21 21 13z m-65 -36 c8 -13 -5 -13 -25 0 -13 8 -13 10 2 10 9 0
20 -4 23 -10z m-670 -180 c37 -74 66 -140 60 -140 -2 0 -27 32 -55 70 -29 39
-54 69 -56 68 -1 -2 1 -21 6 -43 5 -22 10 -57 10 -78 l0 -38 -30 21 c-17 12
-49 47 -72 78 -23 32 -56 72 -72 90 l-31 34 37 -18 c51 -24 64 -15 78 53 l12
58 40 -45 c22 -25 55 -74 73 -110z m-1167 93 c-12 -27 -34 -84 -50 -128 -27
-76 -28 -78 -22 -30 10 79 62 205 85 205 4 0 -2 -21 -13 -47z m1522 -117 c0
-59 -30 -196 -56 -251 -13 -30 -24 -59 -24 -64 0 -6 -7 -11 -15 -11 -20 0 -30
57 -29 165 0 110 19 159 66 180 50 22 58 19 58 -19z m884 -53 c14 -43 28 -98
32 -123 4 -25 17 -63 29 -85 21 -37 90 -267 115 -380 6 -27 13 -58 16 -67 4
-12 -6 -23 -35 -37 l-40 -21 -15 22 c-29 41 -94 203 -101 251 -9 56 4 61 36
15 13 -17 24 -27 26 -22 5 15 -23 79 -41 94 -9 7 -16 21 -16 32 0 31 41 18 67
-21 21 -32 23 -32 23 -10 -1 61 -75 159 -120 159 -10 0 -26 10 -35 23 -18 25
-98 227 -93 233 2 2 25 -3 51 -11 45 -13 48 -13 60 5 6 11 13 20 14 20 1 0 13
-35 27 -77z m-1564 -69 c-5 -54 -10 -123 -10 -153 0 -74 -38 -210 -65 -237
-52 -52 -235 -78 -345 -50 -116 29 -286 121 -310 167 -9 15 -7 27 9 52 11 18
28 37 39 43 16 11 18 9 14 -16 -5 -35 20 -83 55 -108 44 -30 153 -69 243 -88
108 -21 177 -16 230 20 61 40 84 99 110 286 12 85 24 163 27 173 11 40 12 6 3
-89z m-991 -56 c-93 -108 -158 -175 -214 -221 -42 -34 -37 -27 26 39 42 43 92
102 112 130 40 56 110 124 128 124 6 0 -17 -33 -52 -72z m1053 -118 c2 -75 -1
-102 -15 -127 -18 -35 -55 -48 -42 -15 26 61 35 117 36 216 1 94 3 104 10 66
5 -25 10 -88 11 -140z m352 92 c22 -45 35 -135 43 -303 3 -79 2 -129 -4 -132
-7 -4 -13 53 -17 156 -8 170 -13 210 -26 202 -5 -3 -11 -23 -15 -45 -8 -49
-25 -43 -25 9 0 61 -19 145 -35 154 -8 4 -15 17 -15 28 0 18 2 18 38 -6 21
-14 47 -42 56 -63z m975 -217 c1 -47 -18 -79 -59 -100 -42 -22 -43 -20 -15 35
28 55 32 80 11 80 -11 0 -12 6 -1 38 7 20 16 73 20 117 l8 80 18 -105 c10 -58
18 -123 18 -145z m97 -50 c21 -94 43 -143 111 -249 34 -55 63 -105 63 -113 0
-7 -11 -13 -27 -13 -16 0 -48 -9 -72 -20 -24 -11 -46 -20 -48 -20 -3 0 -3 29
1 65 8 78 -10 158 -58 254 -29 59 -31 69 -19 91 16 32 16 68 -1 116 -7 22 -16
57 -19 79 -9 53 50 -109 69 -190z m-956 111 c-6 -20 -15 -38 -20 -41 -5 -3 -2
15 7 40 8 25 17 44 20 41 3 -2 0 -21 -7 -40z m-20 -138 c-23 -40 -39 -65 -36
-55 3 10 6 35 6 55 0 31 6 41 33 58 17 12 34 20 36 18 2 -1 -16 -36 -39 -76z
m-1246 40 c-4 -7 -16 -26 -27 -41 -29 -43 -11 -45 31 -4 l37 36 69 -44 c38
-25 90 -54 117 -67 28 -12 49 -28 49 -37 0 -11 3 -12 8 -4 6 9 23 9 73 1 55
-10 81 -9 158 6 51 10 95 16 98 12 3 -3 9 -47 14 -98 5 -51 11 -105 14 -120 4
-17 -1 -41 -15 -67 -11 -22 -31 -98 -45 -168 l-25 -128 -63 -59 -62 -58 47 26
c26 14 49 26 52 26 10 0 7 -87 -4 -114 -11 -30 -29 -29 -138 6 -69 22 -74 29
-87 113 l-7 49 37 -44 c70 -85 67 -74 -12 46 -29 44 -34 61 -40 135 -4 53 -13
99 -26 124 -25 50 -137 198 -144 191 -3 -3 11 -39 30 -81 20 -41 33 -75 30
-75 -3 0 -55 14 -115 31 -60 17 -111 29 -113 28 -2 -2 34 -24 81 -49 46 -24
84 -47 84 -51 0 -4 -13 -9 -28 -12 -26 -5 -33 -16 -65 -101 -21 -53 -37 -100
-37 -106 0 -6 -18 3 -41 19 -37 28 -94 50 -161 65 -24 5 -28 12 -28 39 0 73
65 262 125 361 30 50 34 63 28 102 -5 41 -3 46 34 84 38 37 84 56 67 28z
m-625 -46 c-95 -56 -116 -73 -133 -108 -9 -20 -19 -35 -21 -32 -6 6 28 78 37
78 4 0 22 13 40 29 31 27 90 59 113 60 6 0 -11 -12 -36 -27z m2796 -88 c9 -19
15 -37 13 -40 -2 -2 -14 17 -26 42 -12 25 -18 43 -13 40 5 -3 16 -22 26 -42z
m-2635 -22 c33 -21 57 -41 54 -45 -3 -3 -26 10 -51 29 -25 19 -65 40 -89 46
-23 7 -41 15 -38 19 8 13 63 -9 124 -49z m1154 0 c9 -26 19 -72 22 -102 4 -48
1 -61 -23 -101 l-28 -47 0 153 c0 84 3 151 7 149 3 -2 13 -25 22 -52z m1464 4
c21 -44 23 -53 12 -92 -9 -31 -9 -51 -2 -72 7 -20 7 -106 0 -268 -12 -287 -12
-297 7 -334 8 -16 15 -33 15 -37 0 -5 -28 -7 -63 -5 -39 3 -88 -2 -126 -12
-81 -21 -82 -20 -44 12 27 23 32 36 38 90 4 39 3 62 -3 62 -24 0 -55 -40 -76
-98 l-22 -63 -11 56 c-10 55 -9 56 19 80 45 38 97 50 170 38 35 -6 65 -9 67
-7 2 2 6 40 9 84 3 55 1 80 -7 80 -7 0 -11 -25 -11 -71 0 -71 0 -71 -25 -65
-92 23 -177 14 -216 -25 -32 -32 -25 9 8 43 l27 28 -40 36 -39 35 98 -5 c55
-2 97 -3 95 -1 -2 2 -34 12 -72 23 l-68 18 71 53 c39 29 71 55 71 57 0 15
-136 -61 -177 -99 -27 -24 -29 -23 -35 29 l-6 41 67 41 c96 59 235 124 239
112 2 -6 -1 -25 -7 -42 -15 -43 -6 -47 19 -7 16 26 19 42 14 69 -3 19 -9 64
-13 100 -4 41 -15 81 -31 108 -21 37 -22 45 -10 52 23 15 33 7 58 -44z m-2779
40 c-3 -3 -25 -9 -49 -15 -40 -9 -43 -8 -26 5 17 12 87 21 75 10z m74 -35 c17
-6 17 -8 -4 -26 -12 -11 -37 -52 -55 -91 -27 -59 -47 -84 -69 -84 -6 0 -23 62
-30 108 -5 29 -3 48 7 59 29 35 106 52 151 34z m2635 -33 c23 -35 30 -57 34
-113 l5 -70 -61 -21 c-173 -61 -313 -127 -390 -184 -44 -33 -77 -60 -73 -60 3
0 32 11 63 25 32 14 61 24 65 23 9 -4 -28 -115 -47 -142 -7 -11 -53 -48 -101
-83 -68 -48 -96 -63 -123 -63 -61 0 -64 7 -40 100 12 45 19 84 17 86 -5 5 -47
-135 -47 -155 0 -11 -4 -11 -18 2 -16 15 -18 25 -10 83 5 37 25 118 44 181 19
63 37 142 40 176 3 34 13 82 21 107 17 48 72 104 98 98 11 -2 7 -14 -20 -53
-37 -54 -55 -105 -36 -105 6 0 11 8 12 18 1 9 7 -1 14 -23 l13 -40 1 48 c1 36
9 59 34 97 20 31 38 48 47 45 8 -2 36 -7 63 -11 l47 -6 1 -67 c1 -51 3 -59 9
-36 4 17 8 47 9 68 1 31 4 37 24 37 12 0 32 3 45 6 19 6 22 3 23 -27 l1 -34
10 32 c9 27 18 33 57 43 25 6 66 22 91 35 25 13 46 24 47 25 1 0 15 -19 31
-42z m-2548 -14 c17 -15 29 -29 26 -31 -2 -3 4 -13 15 -24 27 -27 25 -69 -3
-69 -13 0 -47 -3 -75 -6 -47 -6 -53 -5 -53 11 0 16 -3 16 -25 -5 -30 -28 -33
-14 -10 49 20 57 52 101 75 101 10 0 33 -12 50 -26z m2694 -150 c-5 -20 9
-198 21 -274 5 -32 4 -33 -5 -10 -6 13 -20 78 -31 143 -15 89 -18 137 -12 195
l7 77 12 -55 c7 -30 11 -64 8 -76z m-2983 49 c49 -67 57 -82 32 -60 -28 24
-86 107 -75 107 5 0 24 -21 43 -47z m1781 -56 c-29 -30 -67 -75 -85 -102 -18
-27 -39 -51 -47 -53 -13 -4 -12 -2 1 14 9 10 25 35 34 54 18 35 136 153 144
144 3 -2 -19 -28 -47 -57z m1522 2 c14 -21 26 -43 26 -49 0 -6 9 -40 21 -76
12 -36 19 -67 17 -69 -8 -8 -58 94 -58 118 0 26 -32 57 -74 73 -40 14 -42 28
-9 40 37 14 47 9 77 -37z m-3184 -8 c0 -5 -7 -11 -15 -15 -15 -5 -20 5 -8 17
9 10 23 9 23 -2z m3131 -52 c10 -20 10 -20 -23 -3 -36 18 -59 44 -51 57 6 10
60 -29 74 -54z m-2737 3 c-8 -24 -19 -75 -25 -115 -15 -97 -15 -97 -41 -98
-13 -1 4 -5 37 -10 86 -13 153 -37 206 -74 l45 -32 37 56 c39 60 119 154 95
111 -8 -14 -41 -69 -73 -123 l-59 -97 -35 34 c-61 58 -146 91 -264 102 l-67 7
44 81 c96 179 111 205 113 203 1 -2 -4 -22 -13 -45z m-215 20 c30 -10 56 -23
59 -30 3 -11 -2 -10 -25 1 -36 19 -124 35 -160 30 -24 -3 -25 -2 -8 6 30 14
74 12 134 -7z m-229 -9 c-1 -5 -28 -21 -62 -36 -70 -32 -70 -27 -1 14 50 29
63 34 63 22z m70 3 c0 -3 -4 -8 -10 -11 -5 -3 -10 -1 -10 4 0 6 5 11 10 11 6
0 10 -2 10 -4z m1322 -173 c-9 -43 -10 -38 -10 57 1 101 1 103 10 48 7 -38 7
-74 0 -105z m-1344 82 c17 -36 30 -65 27 -65 -3 0 -19 27 -35 61 -28 54 -33
59 -48 47 -15 -12 -16 -11 -3 5 7 9 16 17 20 17 4 0 21 -29 39 -65z m44 44 c7
-12 35 -36 63 -55 27 -19 45 -34 39 -34 -14 0 -83 50 -113 84 -14 14 -19 26
-13 26 7 0 17 -9 24 -21z m3063 2 c48 -22 78 -53 73 -77 -2 -11 -22 -25 -53
-36 -46 -17 -51 -17 -60 -2 -36 59 -54 81 -83 100 -20 14 -28 24 -20 27 29 12
106 5 143 -12z m-1809 -130 c-3 -53 -10 -112 -15 -131 -7 -29 -9 -20 -10 51
-1 122 9 216 22 193 6 -10 7 -56 3 -113z m-1376 116 c0 -2 -13 -16 -30 -32
-16 -16 -30 -26 -30 -22 0 3 12 18 27 32 27 24 33 28 33 22z m1700 -5 c0 -5
-7 -17 -15 -28 -14 -18 -14 -17 -4 9 12 27 19 34 19 19z m1378 -31 c16 -16 35
-44 42 -61 20 -48 -1 -54 -67 -19 -30 16 -61 29 -69 29 -18 0 -19 66 -1 73 32
14 67 5 95 -22z m267 -12 c9 -17 14 -36 12 -42 -4 -10 -37 51 -37 68 0 13 11
2 25 -26z m-399 -151 c13 -40 15 -72 11 -142 -3 -50 -9 -101 -14 -114 -8 -21
-10 -20 -30 22 -20 41 -21 52 -13 128 6 46 10 121 11 168 1 77 2 81 9 38 5
-26 16 -71 26 -100z m361 55 c20 -44 9 -86 -34 -124 l-36 -31 -34 72 c-18 39
-34 76 -36 82 -3 15 117 59 122 44 2 -6 10 -25 18 -43z m56 7 c6 -23 -10 -37
-25 -22 -12 12 -4 42 11 42 5 0 11 -9 14 -20z m-199 -50 c9 -22 18 -59 21 -82
l6 -43 -17 30 c-9 17 -18 32 -21 34 -2 3 -29 -20 -61 -50 l-57 -54 54 57 54
57 -34 20 c-41 25 -40 25 -86 6 -41 -17 -46 -18 -39 -6 3 4 34 18 68 31 35 12
67 26 73 31 16 15 22 10 39 -31z m206 -20 c0 -26 -32 -100 -43 -100 -5 0 -6 8
-2 18 3 9 11 36 18 60 12 44 27 57 27 22z m-1952 -70 c4 -46 1 -55 -27 -90
-17 -22 -41 -67 -54 -102 -30 -84 -53 -96 -152 -79 -67 11 -155 52 -155 71 0
13 0 13 62 -15 63 -29 165 -43 195 -27 13 7 25 30 32 59 7 26 26 78 42 115 16
36 29 83 29 104 0 56 22 28 28 -36z m-940 -64 c16 -33 9 -46 -68 -127 l-51
-54 5 34 c3 18 6 46 6 61 0 29 68 122 85 117 6 -2 16 -16 23 -31z m1898 -13
c-10 -19 -27 -33 -53 -41 l-38 -11 50 43 c28 24 51 43 53 41 2 -2 -3 -16 -12
-32z m-2039 -73 c-19 -47 -56 -119 -84 -161 -27 -42 -60 -102 -73 -133 -31
-78 -35 -65 -6 21 29 87 32 92 94 175 27 37 60 97 73 134 13 36 25 62 26 57 2
-5 -12 -47 -30 -93z m1963 -69 c-54 -107 -68 -121 -128 -121 -56 0 -150 25
-171 46 -13 12 -12 19 7 57 12 24 22 56 22 71 l0 27 33 -18 c43 -23 146 -21
217 4 30 11 56 18 58 17 2 -1 -15 -38 -38 -83z m575 -73 c4 -18 27 -70 52
-116 39 -71 46 -94 52 -162 4 -44 5 -80 4 -80 -2 0 -13 21 -26 48 -13 26 -38
70 -55 97 -18 28 -36 74 -42 104 -6 30 -12 56 -14 59 -8 7 -18 -107 -13 -131
4 -12 29 -60 57 -105 27 -46 55 -93 61 -105 9 -19 7 -18 -11 3 -81 96 -170
269 -170 329 0 49 34 91 74 91 19 0 26 -6 31 -32z m-1619 -56 c-9 -17 -21 -34
-27 -38 -7 -4 -2 12 11 34 27 47 40 50 16 4z m729 18 c9 -14 -17 -91 -29 -87
-16 5 -19 39 -7 70 11 28 25 35 36 17z m-1589 -82 c-38 -76 -112 -178 -134
-186 -6 -2 12 32 42 75 29 43 68 104 86 136 46 81 50 63 6 -25z m998 -87 c-12
-23 -36 -45 -65 -60 l-45 -24 -55 27 c-29 14 -45 23 -34 20 11 -4 43 -9 71
-11 46 -5 54 -2 87 27 32 28 37 38 38 79 l1 46 11 -34 c9 -28 7 -40 -9 -70z
m756 80 c0 -5 -14 -21 -31 -36 -22 -18 -41 -25 -62 -23 -40 4 -49 28 -10 28
15 0 42 9 58 19 34 22 45 25 45 12z m-760 -163 c0 -19 -32 -48 -53 -48 -11 0
-29 8 -40 18 -19 17 -18 17 29 29 65 15 64 15 64 1z m96 -12 c19 -14 20 -24
20 -200 -1 -134 -4 -188 -14 -198 -9 -9 -12 -9 -12 4 0 23 -48 58 -78 58 -19
0 -23 3 -15 11 7 7 22 8 47 1 21 -6 36 -7 36 -1 0 5 -11 9 -23 9 -13 0 -32 8
-41 19 -16 18 -16 19 8 25 17 4 23 11 20 21 -4 8 -1 22 6 30 11 13 8 15 -20
15 -28 0 -31 -2 -20 -15 8 -9 9 -15 2 -15 -6 0 -18 10 -27 23 -15 21 -16 20
-13 -31 2 -29 9 -57 16 -61 9 -5 6 -13 -12 -30 l-24 -22 5 93 c6 116 7 119 24
87 12 -23 17 -25 39 -16 l25 10 -23 6 c-23 6 -23 6 7 18 24 9 33 8 42 -3 6 -8
15 -14 20 -14 14 0 0 111 -19 151 -21 42 -12 50 24 25z m-1274 -66 c15 0 28
-3 28 -7 0 -5 -17 -28 -39 -53 l-38 -44 -42 19 c-39 17 -41 20 -35 49 4 17 10
41 15 53 l8 21 38 -19 c20 -10 50 -19 65 -19z m1238 4 c0 -20 -9 -29 -42 -44
-46 -21 -69 -15 -89 22 -10 19 -9 20 7 13 46 -19 61 -17 85 13 27 33 39 32 39
-4z m740 -17 c0 -24 -3 -28 -10 -17 -13 20 -13 63 0 55 6 -3 10 -21 10 -38z
m-40 -19 c0 -9 -7 -24 -16 -32 -19 -20 -54 -21 -54 -2 0 7 -7 19 -15 26 -25
21 -17 26 35 26 40 -1 50 -4 50 -18z m861 -81 c-15 -38 -50 -43 -102 -16 l-44
23 49 6 c38 5 54 13 72 36 13 16 25 36 26 44 1 8 3 -3 5 -26 2 -22 -1 -52 -6
-67z m-1457 -197 c1 -75 -2 -90 -26 -131 -17 -28 -41 -53 -62 -63 -60 -28
-156 -17 -156 19 0 11 5 11 30 -3 28 -16 32 -16 67 3 21 11 53 42 70 68 52 78
63 130 58 275 l-4 127 11 -105 c6 -58 12 -143 12 -190z m-77 224 c-3 -3 -16 1
-29 10 -20 14 -18 21 5 17 4 0 7 5 8 12 0 6 5 2 11 -11 6 -12 8 -25 5 -28z
m485 -16 c-6 -7 -25 -22 -44 -32 -36 -20 -30 -12 16 22 32 25 44 28 28 10z
m-1807 -67 c7 -12 -46 -120 -88 -178 -17 -24 -28 -45 -25 -48 4 -5 38 40 100
134 10 14 18 21 18 15 0 -6 -19 -37 -42 -70 -23 -32 -50 -81 -58 -108 -13 -38
-24 -54 -51 -68 -44 -24 -100 -23 -149 2 -46 23 -53 57 -21 89 11 11 17 21 15
24 -3 3 13 19 35 36 38 31 41 31 78 18 21 -8 47 -18 58 -21 11 -4 3 4 -19 17
-21 14 -45 23 -52 20 -24 -9 -15 5 18 28 17 13 28 17 24 10 -6 -10 -3 -12 11
-7 14 4 20 2 20 -9 0 -18 -2 -18 -27 -5 -13 7 -21 7 -25 0 -3 -5 2 -10 12 -10
10 0 29 -7 41 -16 24 -17 27 -13 12 17 -8 14 -7 19 2 19 7 1 2 7 -12 15 -30
17 -13 20 27 4 27 -10 27 -11 9 -25 -11 -7 -16 -17 -12 -21 4 -4 16 3 26 17
l19 25 -29 10 c-16 6 -32 13 -36 18 -11 11 25 8 48 -4 16 -9 23 -8 29 2 14 22
11 26 -23 39 -19 7 -27 14 -20 17 7 3 19 -1 28 -7 8 -7 17 -10 20 -7 3 3 -3
10 -13 16 -38 22 -43 28 -37 44 5 15 9 15 44 -3 21 -11 41 -24 45 -29z m-146
-20 c-29 -40 -38 -32 -9 9 12 17 24 29 27 26 3 -2 -5 -18 -18 -35z m1406 -1
c3 -5 -3 -10 -14 -10 -12 0 -21 5 -21 10 0 6 6 10 14 10 8 0 18 -4 21 -10z
m-1315 -30 c13 -9 13 -10 0 -9 -8 0 -24 4 -35 9 l-20 9 20 0 c11 0 27 -4 35
-9z m2055 0 c-4 -6 -30 -22 -58 -37 -29 -14 -73 -43 -98 -64 -58 -48 -106 -69
-159 -69 -69 0 -110 32 -109 85 1 30 1 30 9 -5 23 -98 142 -94 265 10 28 24
73 53 100 66 57 27 58 28 50 14z m915 -73 c0 -42 -89 -65 -116 -29 -20 26 -17
32 14 26 15 -2 38 2 52 10 37 21 50 19 50 -7z m-1648 -8 c64 -17 59 -76 -12
-148 -38 -38 -54 -39 -76 -6 -23 35 -11 129 19 150 25 18 22 18 69 4z m1698
-75 c0 -6 32 -43 70 -83 81 -82 87 -105 38 -147 -44 -36 -135 -76 -167 -72
-56 7 -67 93 -15 117 34 15 42 8 9 -9 -28 -15 -34 -36 -7 -25 9 4 32 9 50 12
31 5 32 7 16 24 -10 11 -28 19 -41 19 -21 0 -22 3 -13 20 9 16 8 18 -6 13 -8
-3 -20 -17 -26 -32 l-11 -26 -8 30 c-5 17 -19 50 -33 75 -24 46 -45 119 -26
90 41 -60 76 -129 72 -141 -4 -10 0 -9 15 4 11 9 27 17 36 17 9 0 19 4 22 10
4 6 -10 8 -35 6 -22 -2 -40 0 -40 5 0 10 37 22 49 14 6 -3 9 4 8 15 -1 11 -5
20 -10 20 -5 0 -7 7 -3 15 3 9 0 15 -10 15 -8 0 -22 -7 -30 -15 -9 -8 -21 -15
-27 -15 -7 1 2 12 18 26 l30 26 -35 -6 c-19 -3 -28 -3 -20 1 8 3 27 14 42 24
29 21 48 24 48 9 0 -5 10 -35 21 -66 22 -59 49 -94 73 -94 9 0 4 10 -13 28
-26 25 -72 128 -70 155 1 14 28 -42 29 -59z m-86 -59 c-10 -8 -23 -14 -29 -14
-5 0 -1 6 9 14 11 8 24 15 30 15 5 0 1 -7 -10 -15z m-3192 -85 c40 -24 111
-26 152 -5 16 9 31 13 34 10 10 -10 -68 -35 -108 -35 -43 0 -103 20 -114 39
-10 16 -1 14 36 -9z"/>
<path d="M3230 4099 c0 -17 4 -20 23 -15 12 3 30 6 41 6 15 0 16 3 6 15 -7 8
-25 15 -41 15 -23 0 -29 -5 -29 -21z"/>
<path d="M3447 4073 c-3 -5 -5 -21 -5 -36 0 -26 2 -27 18 -12 10 9 16 24 13
36 -5 19 -18 25 -26 12z"/>
<path d="M2060 4170 c0 -5 15 -10 33 -11 l32 -1 -31 -8 c-68 -16 -70 -19 -28
-40 21 -11 47 -20 59 -20 23 0 59 20 37 20 -7 0 -10 5 -6 11 3 6 0 15 -7 21
-10 6 -7 8 10 6 31 -4 39 18 9 26 -37 9 -108 7 -108 -4z"/>
<path d="M2231 3663 c0 -25 1 -26 9 -8 8 18 9 17 9 -8 1 -16 -3 -26 -9 -22
-16 10 -12 -15 5 -31 13 -14 15 -9 15 40 0 43 -3 56 -15 56 -10 0 -15 -9 -14
-27z"/>
<path d="M1956 3483 c7 -32 13 -64 14 -70 0 -7 6 -13 14 -13 14 0 36 69 36
114 0 44 -30 33 -31 -11 -1 -39 -3 -38 -13 10 -4 15 -13 27 -20 27 -12 0 -12
-8 0 -57z"/>
<path d="M2045 3528 c-2 -7 -5 -39 -8 -70 l-4 -58 39 0 c21 0 38 5 38 10 0 6
-9 10 -20 10 -13 0 -20 7 -20 20 0 13 7 20 20 20 11 0 20 7 20 15 0 8 -9 15
-20 15 -11 0 -20 7 -20 15 0 9 9 15 25 15 14 0 25 5 25 10 0 15 -70 12 -75 -2z"/>
<path d="M1872 3521 c-18 -11 5 -131 25 -131 9 0 11 8 7 26 -5 19 -4 25 5 20
6 -4 11 -14 11 -22 0 -8 7 -14 16 -14 12 0 14 7 10 28 -3 15 -8 44 -12 65 -5
29 -11 37 -28 37 -11 0 -27 -4 -34 -9z m48 -31 c0 -11 -6 -20 -14 -20 -21 0
-31 21 -15 31 22 14 29 11 29 -11z"/>
<path d="M2141 3472 c-14 -72 -14 -82 4 -82 9 0 15 9 15 25 0 14 5 25 11 25 6
0 8 -11 4 -29 -4 -20 -2 -30 9 -34 10 -4 17 3 21 26 4 18 12 37 17 44 19 24 4
56 -33 69 l-37 12 -11 -56z m52 -8 c-4 -10 -9 -12 -15 -6 -12 12 -1 35 12 27
5 -3 6 -13 3 -21z"/>
<path d="M1788 3498 c-31 -11 -36 -34 -14 -63 8 -12 20 -16 35 -12 11 3 21 1
21 -4 0 -5 -7 -9 -15 -9 -8 0 -15 -9 -15 -20 0 -21 24 -28 35 -10 4 6 11 8 16
5 12 -8 11 32 -2 57 -8 15 -17 18 -36 13 -18 -4 -24 -2 -21 7 3 7 15 12 26 10
24 -4 25 -2 16 22 -7 18 -9 18 -46 4z"/>
<path d="M1987 3344 c-13 -14 -7 -54 8 -54 8 0 15 5 15 10 0 6 9 10 20 10 13
0 20 -7 20 -20 0 -11 -7 -20 -15 -20 -8 0 -15 -5 -15 -10 0 -6 7 -13 15 -16 9
-4 15 -19 15 -35 0 -19 -5 -29 -15 -29 -8 0 -15 9 -15 20 0 24 -28 27 -37 4
-3 -8 -1 -26 5 -40 10 -20 19 -24 57 -24 l45 0 -2 103 -3 102 -45 3 c-25 2
-49 0 -53 -4z"/>
<path d="M3561 3834 c0 -11 3 -14 6 -6 3 7 2 16 -1 19 -3 4 -6 -2 -5 -13z"/>
<path d="M3570 3615 c0 -44 -17 -46 -23 -2 -4 31 -4 31 -5 -5 -2 -32 1 -38 18
-38 17 0 20 7 20 40 0 22 -2 40 -5 40 -3 0 -5 -16 -5 -35z"/>
<path d="M3374 3413 l-8 -48 -5 39 c-3 22 -12 41 -18 44 -16 5 -16 -12 -2 -76
9 -42 14 -49 33 -49 20 0 24 6 30 45 9 69 7 92 -8 92 -9 0 -17 -18 -22 -47z"/>
<path d="M3440 3411 c0 -27 -3 -56 -6 -65 -4 -10 -1 -16 9 -16 8 0 18 10 22
23 6 22 7 21 17 -5 5 -16 17 -28 25 -28 11 0 13 5 7 18 -4 9 -8 40 -8 67 -1
49 -2 50 -33 53 l-33 3 0 -50z m44 4 c-4 -8 -8 -15 -10 -15 -2 0 -4 7 -4 15 0
8 4 15 10 15 5 0 7 -7 4 -15z"/>
<path d="M3281 3423 c-6 -10 -11 -12 -11 -5 0 17 -30 15 -30 -3 0 -32 22 -115
31 -115 5 0 9 15 10 33 l1 32 10 -28 c13 -35 34 -29 30 9 -8 91 -20 113 -41
77z"/>
<path d="M3551 3385 c-12 -52 -9 -75 8 -75 5 0 12 10 16 23 8 21 8 21 12 -5 5
-31 33 -47 33 -18 0 10 -4 21 -10 25 -5 3 -1 14 10 25 30 30 25 56 -11 69 -45
16 -45 16 -58 -44z m59 10 c0 -8 -7 -15 -15 -15 -9 0 -12 6 -9 15 4 8 10 15
15 15 5 0 9 -7 9 -15z"/>
<path d="M3194 3410 c-35 -14 -37 -29 -10 -65 28 -37 33 -55 14 -55 -9 0 -9
-3 -1 -11 18 -18 43 -3 43 25 0 24 -23 56 -41 56 -5 0 -9 7 -9 16 0 10 6 14
15 10 10 -4 15 1 15 14 0 11 -1 20 -2 19 -2 0 -13 -4 -24 -9z"/>
<path d="M3351 3256 c-14 -17 -8 -46 8 -46 5 0 13 5 16 10 10 16 45 12 45 -5
0 -8 -7 -15 -15 -15 -8 0 -15 -7 -15 -15 0 -9 7 -18 15 -21 9 -4 15 -19 15
-35 0 -19 -5 -29 -15 -29 -8 0 -15 7 -15 15 0 8 -9 15 -21 15 -17 0 -20 -5
-17 -32 3 -32 4 -33 53 -33 l50 0 0 100 0 100 -46 3 c-32 2 -50 -2 -58 -12z"/>
<path d="M1640 2811 c14 -11 72 -55 130 -97 148 -107 222 -142 379 -178 85
-20 67 -5 -49 40 -132 51 -172 72 -275 149 -91 69 -128 89 -181 100 l-29 6 25
-20z"/>
<path d="M2173 2701 c2 -28 7 -35 26 -38 20 -3 23 0 17 19 -3 13 -6 29 -6 36
0 25 -20 11 -21 -15 l-1 -28 -8 30 -8 30 1 -34z"/>
<path d="M1878 2595 c11 -22 38 -47 62 -59 8 -4 4 1 -9 12 -13 10 -32 30 -43
43 -15 18 -17 19 -10 4z"/>
<path d="M1980 2426 c36 -37 83 -81 105 -99 l40 -31 -35 38 c-49 53 -127 127
-153 145 -12 7 7 -16 43 -53z"/>
<path d="M1678 2463 c6 -2 18 -2 25 0 6 3 1 5 -13 5 -14 0 -19 -2 -12 -5z"/>
<path d="M1623 2453 c9 -2 23 -2 30 0 6 3 -1 5 -18 5 -16 0 -22 -2 -12 -5z"/>
<path d="M1990 2318 c75 -116 114 -165 75 -93 -32 58 -111 171 -125 180 -6 3
17 -36 50 -87z"/>
<path d="M3771 2334 c0 -11 3 -14 6 -6 3 7 2 16 -1 19 -3 4 -6 -2 -5 -13z"/>
<path d="M3640 2656 c-47 -35 -103 -83 -125 -106 -38 -41 -35 -40 60 26 55 38
110 76 121 84 23 16 50 60 37 60 -4 0 -46 -29 -93 -64z"/>
<path d="M3259 2259 c-103 -87 -103 -87 -54 -60 43 24 72 48 119 99 46 50 27
38 -65 -39z"/>
<path d="M824 1200 c-29 -11 -43 -34 -18 -27 50 14 82 16 114 7 l35 -9 -24 19
c-24 21 -70 25 -107 10z"/>
<path d="M920 1114 c-24 -13 -38 -24 -30 -24 16 0 80 36 80 45 0 3 -1 4 -2 4
-2 -1 -23 -12 -48 -25z"/>
<path d="M3162 1530 c0 -14 2 -19 5 -12 2 6 2 18 0 25 -3 6 -5 1 -5 -13z"/>
<path d="M1634 1320 c-51 -21 -71 -97 -36 -139 9 -12 34 -24 54 -28 32 -5 41
-1 68 25 37 37 40 80 8 116 -26 29 -63 39 -94 26z"/>
<path d="M2110 803 c-58 -1 -269 -9 -470 -18 -201 -8 -455 -18 -565 -21 -119
-5 -190 -10 -175 -15 39 -12 985 -29 1592 -29 695 0 1070 11 1703 49 l110 7
-115 7 c-328 20 -1594 33 -2080 20z"/>
</g>
</svg>