<?xml version="1.0" standalone="no"?>
<!DOCTYPE svg PUBLIC "-//W3C//DTD SVG 20010904//EN"
 "http://www.w3.org/TR/2001/REC-SVG-20010904/DTD/svg10.dtd">
<svg version="1.0" xmlns="http://www.w3.org/2000/svg"
 width="675.000000pt" height="675.000000pt" viewBox="0 0 675.000000 675.000000"
 preserveAspectRatio="xMidYMid meet">
<metadata>
Created by potrace 1.10, written by Peter Selinger 2001-2011
</metadata>
<g transform="translate(0.000000,675.000000) scale(0.100000,-0.100000)"
fill="#000000" stroke="none">
<path d="M3505 6293 c-11 -2 -38 -10 -60 -18 -22 -7 -66 -21 -98 -31 -125 -40
-160 -99 -204 -344 -3 -19 -12 -42 -19 -50 -31 -36 -44 -90 -44 -182 0 -111
19 -161 73 -198 45 -31 50 -69 12 -90 -20 -10 -27 -11 -40 0 -11 9 -35 10 -92
4 l-78 -8 60 -7 c33 -5 74 -15 90 -22 38 -19 191 -74 228 -83 15 -3 30 -10 33
-15 3 -5 16 -9 30 -9 14 0 34 -5 45 -11 11 -5 73 -19 137 -30 100 -18 148 -20
324 -16 l208 4 60 -29 c96 -45 145 -98 201 -213 26 -55 51 -114 55 -130 4 -16
13 -40 20 -54 8 -14 14 -33 14 -41 0 -9 4 -20 8 -25 7 -9 26 -74 62 -220 32
-128 50 -296 50 -475 0 -145 22 -426 41 -530 6 -30 13 -103 16 -163 6 -116 5
-119 -57 -252 -36 -75 -50 -127 -50 -185 0 -64 -9 -90 -31 -90 -25 0 -49 38
-49 77 0 28 -6 36 -40 53 -21 11 -54 20 -72 20 -21 0 -54 13 -88 35 -55 35
-77 37 -110 10 -42 -35 -63 -38 -349 -41 -279 -3 -434 -15 -646 -50 -129 -21
-170 -22 -170 -4 0 9 11 16 30 18 16 2 48 16 70 31 28 19 60 30 101 34 72 8
134 25 134 37 0 12 -58 19 -176 22 l-101 3 -27 -32 c-31 -37 -51 -41 -78 -16
-17 15 -21 14 -70 -16 -44 -28 -59 -32 -91 -27 -54 9 -105 -2 -112 -24 -3 -10
-23 -25 -44 -33 -21 -9 -41 -23 -44 -31 -6 -15 -74 -39 -88 -30 -4 2 -5 20 -2
39 5 29 1 38 -25 60 -17 14 -45 44 -63 66 l-32 40 17 52 c9 29 27 104 41 167
13 63 32 140 40 170 9 30 20 75 25 100 13 70 59 260 74 310 8 25 17 60 20 79
4 20 24 53 54 86 54 59 107 143 140 225 29 70 41 98 57 135 7 17 16 41 18 55
5 23 30 102 45 140 9 23 29 94 64 220 26 92 33 139 36 235 4 125 -1 149 -45
259 -14 32 -22 67 -20 78 8 27 -9 23 -114 -30 -52 -27 -108 -53 -124 -60 -17
-6 -54 -20 -84 -31 -29 -11 -92 -23 -140 -27 -71 -6 -93 -12 -129 -35 -24 -16
-46 -29 -49 -29 -3 0 -22 -13 -43 -30 -21 -16 -42 -30 -48 -30 -22 0 -86 -87
-126 -173 -43 -90 -45 -93 -120 -141 -64 -41 -186 -158 -186 -179 0 -14 -82
-126 -125 -172 -26 -27 -55 -61 -64 -75 -29 -41 -53 -205 -54 -370 l-1 -149
32 -51 c18 -28 32 -60 32 -70 0 -11 6 -34 14 -52 8 -18 29 -80 46 -138 35
-117 44 -142 104 -283 9 -21 16 -42 16 -47 0 -5 20 -52 45 -104 25 -53 45
-102 45 -110 0 -7 7 -19 15 -26 8 -7 15 -17 15 -22 0 -9 140 -302 161 -338 5
-8 12 -22 16 -30 27 -61 178 -229 205 -230 5 0 26 -16 48 -36 48 -43 52 -78
19 -164 -35 -90 -58 -220 -88 -500 -5 -41 -13 -93 -20 -115 -6 -22 -22 -89
-35 -150 -14 -60 -32 -137 -42 -170 -9 -33 -20 -78 -24 -100 -9 -52 -46 -222
-65 -305 -25 -107 -47 -320 -36 -334 8 -10 131 -14 513 -20 277 -4 559 -11
628 -16 161 -12 585 -12 675 0 39 5 230 12 425 15 195 4 365 8 377 11 25 5 24
23 -4 144 -9 36 -19 85 -24 110 -4 25 -15 74 -24 110 -12 49 -17 132 -20 335
-3 149 -8 455 -11 680 -4 226 -8 433 -8 461 -1 68 21 92 124 134 88 36 198
137 481 440 249 268 395 449 642 795 82 115 110 166 114 208 4 37 0 48 -33 91
-72 95 -288 317 -414 428 -83 73 -181 144 -251 182 -25 13 -63 34 -84 46 -21
12 -63 31 -94 42 -41 15 -75 39 -126 90 -77 75 -147 121 -324 214 -112 58
-179 104 -266 183 -23 20 -50 41 -60 48 -53 33 -145 81 -185 97 -136 55 -160
75 -160 134 0 33 30 72 73 97 56 31 45 298 -18 475 -7 19 -18 60 -25 90 -24
108 -71 160 -190 213 -54 23 -198 41 -245 30z m-145 -146 c12 -24 20 -56 18
-73 -2 -24 -9 -31 -40 -38 -49 -12 -78 11 -78 63 0 36 40 91 66 91 7 0 22 -19
34 -43z m420 23 c16 0 40 -51 40 -82 0 -17 -66 -59 -124 -78 -45 -15 -67 -3
-85 46 l-14 38 47 44 c43 40 51 44 84 38 20 -3 44 -6 52 -6z m-415 -778 c39
-16 98 -37 133 -47 60 -18 66 -18 110 -2 69 25 101 21 188 -22 44 -22 91 -44
107 -50 30 -11 45 -37 31 -51 -9 -9 -230 3 -350 18 -64 8 -145 29 -199 52 -11
4 -45 18 -75 30 -84 34 -97 51 -64 84 21 22 38 20 119 -12z m-483 -119 c17
-21 39 -76 62 -152 18 -61 20 -157 5 -216 -6 -22 -14 -58 -19 -80 -26 -118
-142 -485 -166 -522 -8 -12 -14 -27 -14 -32 0 -17 -69 -159 -80 -166 -5 -3
-10 -14 -10 -23 0 -9 -16 -32 -35 -50 -36 -32 -72 -41 -91 -22 -8 8 -13 -12
-18 -66 -3 -43 -13 -100 -20 -128 -8 -28 -22 -86 -30 -128 -35 -171 -49 -235
-61 -278 -27 -93 -87 -336 -92 -372 -5 -34 -1 -41 51 -92 53 -53 69 -87 46
-101 -24 -15 -92 41 -119 99 -25 55 -81 238 -81 266 0 12 -4 29 -10 39 -25 47
-43 235 -47 496 l-5 270 71 63 c43 39 94 99 132 155 94 142 102 148 145 101
29 -31 30 -50 3 -134 -23 -73 -19 -130 8 -130 9 0 31 -5 50 -12 39 -14 47 -7
92 87 78 163 125 298 223 640 41 145 45 287 9 380 -12 33 -27 65 -33 72 -10
13 -2 53 11 53 4 0 15 -8 23 -17z m-70 -50 c28 -32 58 -152 58 -230 0 -58 -6
-86 -25 -128 -27 -59 -47 -75 -97 -75 -70 0 -77 51 -18 121 31 36 37 49 27 57
-22 19 -178 82 -200 82 -80 0 -221 -52 -272 -101 -25 -24 -12 -50 31 -63 59
-18 129 -49 147 -64 21 -18 22 -60 2 -86 -8 -11 -15 -31 -15 -45 0 -16 -16
-39 -47 -68 -69 -64 -191 -157 -240 -182 -29 -14 -43 -28 -43 -41 0 -11 -19
-41 -41 -65 -62 -68 -109 -59 -109 21 0 74 65 190 172 308 60 64 76 88 71 105
-8 31 -35 26 -77 -15 -20 -19 -40 -32 -46 -29 -17 11 -57 -25 -76 -68 -25 -55
-247 -280 -271 -275 -27 6 -20 45 20 113 52 89 99 138 209 222 91 68 102 81
130 141 40 85 111 160 223 233 86 57 92 59 155 59 59 1 104 12 193 48 16 7 34
12 40 12 7 1 23 7 37 15 33 19 44 18 62 -2z m1744 -343 c47 -22 87 -40 89 -40
2 0 38 -21 80 -46 46 -28 97 -71 133 -110 64 -72 100 -98 152 -109 58 -12 209
-94 310 -168 217 -160 510 -456 510 -514 l0 -25 -37 28 c-21 16 -81 67 -134
114 -124 111 -198 165 -429 316 -65 43 -134 97 -159 125 -24 27 -61 59 -82 70
-44 22 -155 59 -180 59 -9 0 -35 14 -57 30 -23 17 -46 30 -50 30 -13 0 -59
-53 -66 -76 -4 -12 -15 -29 -25 -38 -16 -15 -19 -15 -31 -1 -7 9 -28 58 -45
108 -38 108 -44 125 -55 152 -27 65 -38 113 -27 124 14 14 6 17 103 -29z m187
-851 c26 -17 47 -35 47 -40 0 -5 5 -9 11 -9 6 0 36 -20 67 -43 81 -62 200
-131 249 -145 57 -17 98 -52 89 -78 -3 -10 -22 -37 -42 -59 -58 -65 -101 -137
-124 -206 -31 -91 -95 -221 -147 -296 -54 -77 -237 -270 -264 -278 -48 -16
-63 41 -29 110 11 22 19 43 20 48 0 4 12 31 26 60 20 41 26 72 30 147 5 94 2
142 -31 435 -20 182 -16 336 11 366 23 26 33 24 87 -12z m-699 -1144 c40 -14
49 -14 73 -2 25 13 32 13 63 -4 19 -11 46 -19 61 -19 29 0 71 -36 115 -100 38
-55 74 -135 74 -164 0 -12 5 -27 10 -32 17 -17 42 -180 62 -399 8 -92 12 -351
13 -760 0 -592 1 -622 20 -672 13 -35 16 -56 10 -62 -12 -12 -240 -38 -440
-51 -77 -5 -187 -14 -245 -19 -161 -16 -630 -13 -820 4 -218 20 -461 46 -482
52 -22 5 -23 42 -4 103 36 113 56 186 56 202 0 9 5 20 10 23 6 3 10 21 10 40
0 19 5 37 10 40 18 11 11 32 -30 83 -22 27 -40 53 -40 57 0 4 -6 13 -14 19 -7
6 -42 49 -76 95 -35 47 -70 92 -77 100 -88 101 -93 111 -93 196 0 125 29 328
65 460 8 28 22 84 31 125 17 74 33 127 59 185 8 17 23 55 35 85 32 80 88 176
125 215 24 26 41 35 65 35 23 0 44 10 72 36 36 32 42 35 84 28 39 -6 47 -3 71
20 19 19 33 25 48 21 57 -16 78 -17 113 -2 69 29 133 38 191 27 80 -15 130
-12 177 10 40 20 44 20 85 4 70 -27 143 -29 197 -6 41 17 55 18 109 9 63 -11
71 -9 160 32 1 1 23 -6 47 -14z m536 -345 c0 -34 -6 -37 -32 -13 -26 23 -23
43 7 43 21 0 25 -5 25 -30z m145 -40 c14 -22 -29 -52 -121 -84 -65 -22 -87 13
-38 59 20 19 30 22 43 14 12 -8 26 -7 51 4 43 19 57 20 65 7z m-2271 -1207
c145 -194 154 -209 149 -242 -3 -20 -12 -48 -19 -63 -8 -15 -14 -38 -14 -52 0
-13 -6 -37 -14 -53 -8 -15 -23 -57 -34 -93 -12 -36 -32 -96 -46 -134 -14 -38
-26 -74 -26 -81 0 -23 269 -53 764 -85 303 -19 342 -26 302 -56 -29 -21 -52
-20 -603 17 -444 29 -557 39 -567 49 -7 7 -4 20 9 43 20 34 27 48 43 87 55
129 75 179 82 205 5 17 20 71 34 120 29 103 31 119 13 137 -19 19 -126 164
-171 231 -22 31 -43 57 -47 57 -9 0 -25 -49 -38 -120 -10 -56 -31 -150 -50
-230 -13 -55 -35 -201 -57 -380 -12 -93 -22 -139 -33 -148 -21 -17 -28 -15
-46 12 -17 26 -13 74 20 231 8 39 27 131 41 205 30 155 37 188 53 250 6 25 22
90 35 145 29 120 42 155 56 155 6 0 80 -93 164 -207z m2127 -733 c10 -6 19
-21 19 -34 0 -33 -33 -43 -188 -56 -70 -6 -134 -13 -142 -16 -8 -3 -118 -9
-245 -14 -126 -6 -275 -12 -330 -16 l-100 -5 25 23 c19 17 50 27 125 40 160
27 326 48 383 48 29 0 85 5 123 11 39 6 118 14 177 18 59 5 113 9 120 10 7 0
22 -4 33 -9z"/>
<path d="M3450 4701 c0 -11 5 -23 10 -26 14 -9 13 -258 -1 -272 -19 -19 -2
-43 29 -43 40 0 56 21 37 46 -17 22 -20 100 -4 109 5 4 20 4 33 1 20 -5 24
-15 32 -73 9 -70 22 -84 60 -69 12 5 11 10 -7 35 -19 26 -21 41 -20 158 1 130
1 130 -25 141 -14 7 -52 12 -84 12 -53 0 -60 -2 -60 -19z m127 -33 c8 -11 9
-33 4 -94 -1 -11 -10 -14 -33 -12 -32 3 -33 5 -36 52 -3 50 6 66 39 66 9 0 21
-6 26 -12z"/>
<path d="M3755 4700 c-4 -6 -1 -17 5 -25 10 -11 9 -29 0 -77 -7 -35 -16 -89
-20 -121 -5 -37 -14 -63 -26 -71 -9 -7 -15 -20 -12 -28 6 -16 71 -38 111 -38
36 0 77 52 77 98 1 20 7 64 15 97 31 126 14 159 -82 169 -40 5 -64 3 -68 -4z
m120 -50 c8 -13 -21 -202 -37 -242 -7 -20 -18 -28 -34 -28 -34 0 -40 37 -20
118 9 37 16 80 16 95 0 16 5 37 10 48 11 20 54 26 65 9z"/>
<path d="M3264 4679 c-17 -5 -39 -18 -49 -28 -18 -21 -18 -20 8 -141 30 -136
36 -155 53 -167 35 -26 108 -9 119 27 8 24 -9 138 -33 228 -20 74 -45 95 -98
81z m56 -76 c18 -65 41 -213 35 -223 -9 -14 -55 -12 -59 3 -2 6 -11 46 -20 87
-10 41 -22 92 -27 113 -12 46 -6 57 31 57 25 0 31 -5 40 -37z"/>
<path d="M3061 4611 c-13 -4 -29 -14 -35 -24 -9 -14 -6 -21 15 -40 37 -31 122
-226 108 -244 -15 -18 -49 -16 -71 3 -16 16 -18 15 -24 -1 -11 -29 10 -50 54
-53 32 -2 45 2 66 23 14 14 26 32 26 40 0 8 -18 51 -39 97 -62 132 -69 153
-60 170 12 21 -10 36 -40 29z"/>
<path d="M4054 4520 c-32 -49 -62 -90 -66 -90 -4 0 -8 -6 -8 -13 0 -7 -16 -28
-35 -47 -19 -19 -35 -37 -35 -41 0 -11 58 -31 69 -24 6 3 11 18 11 33 0 17 8
32 22 41 19 12 23 11 35 -5 18 -25 17 -32 -12 -58 l-25 -23 23 -21 c13 -12 32
-22 43 -22 17 0 19 7 20 58 0 32 8 84 18 117 56 194 55 185 23 185 -19 0 -36
-19 -83 -90z m16 -74 c0 -8 -4 -18 -10 -21 -5 -3 -10 3 -10 14 0 12 5 21 10
21 6 0 10 -6 10 -14z"/>
<path d="M4337 4503 c-4 -3 -7 -15 -7 -26 0 -10 -27 -53 -61 -95 -33 -41 -67
-85 -75 -98 -8 -12 -26 -25 -40 -28 -31 -8 -30 -26 2 -49 30 -22 54 -16 54 14
0 27 80 123 92 111 9 -9 -11 -84 -39 -154 -16 -39 -12 -58 14 -58 15 0 63 44
63 58 0 4 23 33 50 66 28 32 55 66 60 76 6 10 22 20 37 22 38 4 39 24 2 59
-38 35 -53 33 -56 -8 -1 -31 -68 -133 -86 -133 -12 0 -4 46 23 139 20 69 20
75 4 92 -18 20 -27 23 -37 12z"/>
<path d="M3157 4071 c-84 -67 -85 -67 -97 -176 -13 -123 -10 -127 95 -123 l70
3 3 65 c4 118 -3 111 119 108 85 -2 108 -6 116 -19 13 -21 -10 -241 -27 -263
-9 -13 -30 -14 -131 -7 l-120 9 -40 -28 c-22 -15 -57 -43 -78 -61 l-38 -34 -9
-150 c-6 -82 -13 -169 -16 -192 -6 -40 -4 -43 21 -53 14 -5 61 -10 103 -10 42
0 157 -7 255 -17 153 -14 180 -14 191 -2 15 15 30 248 17 266 -7 12 -124 25
-146 17 -10 -4 -15 -20 -15 -48 0 -65 -4 -67 -121 -64 l-104 3 -3 94 c-2 55 2
98 8 106 8 10 42 11 140 7 l129 -5 71 58 c38 31 70 62 70 67 0 5 7 84 16 175
l16 165 -68 68 -69 68 -155 6 -155 6 -48 -39z"/>
<path d="M3830 4015 c-37 -31 -68 -67 -72 -83 -4 -14 -9 -65 -10 -112 l-3 -85
79 -9 c94 -10 96 -9 96 85 0 99 4 101 130 89 57 -6 106 -13 108 -15 6 -6 -15
-212 -23 -225 -3 -5 -39 -10 -80 -10 -62 0 -74 -3 -79 -17 -5 -17 -9 -93 -7
-119 1 -6 32 -14 73 -17 41 -4 75 -11 79 -19 9 -14 1 -165 -11 -208 -7 -25 -8
-25 -104 -24 -60 1 -102 6 -109 13 -7 7 -12 35 -12 64 l0 52 -80 7 c-44 4 -82
4 -86 0 -4 -4 -9 -40 -12 -80 l-6 -73 52 -58 c29 -32 62 -63 75 -70 13 -6 88
-14 167 -18 l144 -6 71 57 c48 39 70 64 70 79 0 12 5 72 11 132 14 154 14 163
-5 184 -14 15 -15 24 -6 40 6 12 14 21 18 21 8 0 43 253 42 300 -1 34 -108
148 -151 160 -18 5 -92 12 -163 15 l-131 6 -65 -56z"/>
</g>
</svg>
